<svg width="21" height="16" viewBox="0 0 21 16" fill="none" xmlns="http://www.w3.org/2000/svg">
<path d="M13.3636 10C10.815 10 5.72727 11.33 5.72727 14V16H21V14C21 11.33 15.9123 10 13.3636 10ZM4.77273 6V3H2.86364V6H0V8H2.86364V11H4.77273V8H7.63636V6M13.3636 8C14.3763 8 15.3474 7.57857 16.0635 6.82843C16.7795 6.07828 17.1818 5.06087 17.1818 4C17.1818 2.93913 16.7795 1.92172 16.0635 1.17157C15.3474 0.421427 14.3763 0 13.3636 0C12.351 0 11.3798 0.421427 10.6638 1.17157C9.94773 1.92172 9.54545 2.93913 9.54545 4C9.54545 5.06087 9.94773 6.07828 10.6638 6.82843C11.3798 7.57857 12.351 8 13.3636 8Z" fill="white"/>
</svg>
