<svg width="25" height="17" viewBox="0 0 25 17" fill="none" xmlns="http://www.w3.org/2000/svg">
<path d="M17.0455 7.28571C18.9318 7.28571 20.4432 5.65857 20.4432 3.64286C20.4432 1.62714 18.9318 0 17.0455 0C15.1591 0 13.6364 1.62714 13.6364 3.64286C13.6364 5.65857 15.1591 7.28571 17.0455 7.28571ZM7.95455 7.28571C9.84091 7.28571 11.3523 5.65857 11.3523 3.64286C11.3523 1.62714 9.84091 0 7.95455 0C6.06818 0 4.54545 1.62714 4.54545 3.64286C4.54545 5.65857 6.06818 7.28571 7.95455 7.28571ZM7.95455 9.71429C5.30682 9.71429 0 11.135 0 13.9643V17H15.9091V13.9643C15.9091 11.135 10.6023 9.71429 7.95455 9.71429ZM17.0455 9.71429C16.7159 9.71429 16.3409 9.73857 15.9432 9.775C17.2614 10.795 18.1818 12.1671 18.1818 13.9643V17H25V13.9643C25 11.135 19.6932 9.71429 17.0455 9.71429Z" fill="white"/>
</svg>
