<svg width="111" height="108" viewBox="0 0 111 108" fill="none" xmlns="http://www.w3.org/2000/svg">
<path d="M17.2834 54.1841C17.9124 54.7867 18.7194 55.1961 19.6301 55.3116C20.5408 55.4272 21.4245 55.2322 22.184 54.8057" stroke="#6F7BA8" stroke-width="1.5" stroke-linecap="round"/>
<path d="M22.5984 51.5386C23.0495 51.5958 23.4848 51.0937 23.5706 50.4171C23.6565 49.7404 23.3604 49.1455 22.9093 49.0883C22.4582 49.0311 22.0229 49.5332 21.9371 50.2099C21.8513 50.8865 22.1474 51.4814 22.5984 51.5386Z" fill="#6F7BA8"/>
<path d="M17.6978 50.917C18.1489 50.9742 18.5842 50.472 18.67 49.7954C18.7559 49.1188 18.4598 48.5239 18.0087 48.4666C17.5576 48.4094 17.1223 48.9116 17.0365 49.5882C16.9507 50.2648 17.2467 50.8597 17.6978 50.917Z" fill="#6F7BA8"/>
<path d="M28.1811 53.3257C28.7704 48.6807 25.5916 44.4491 21.0806 43.8769C16.5696 43.3046 12.4351 46.6077 11.8458 51.2535L11.0767 57.3164C10.9397 58.3961 11.9541 59.2385 12.9538 58.8749C13.3491 58.7305 13.7762 58.6963 14.1894 58.7759C14.6026 58.8555 14.9865 59.046 15.2999 59.3268C15.6511 59.6419 16.09 59.8425 16.5581 59.9019C17.0262 59.9613 17.5013 59.8766 17.92 59.6592L18.2334 59.4981C18.5059 59.3575 18.8147 59.3028 19.1189 59.3414C19.4231 59.38 19.7085 59.51 19.9372 59.7143L20.2005 59.9485C20.5517 60.2636 20.9906 60.4642 21.4587 60.5236C21.9268 60.5829 22.4019 60.4983 22.8207 60.2809C23.1944 60.087 23.6137 59.9984 24.0339 60.0245C24.4541 60.0506 24.8593 60.1904 25.2061 60.4291C26.0825 61.0308 27.2751 60.4683 27.4121 59.3885L27.7965 56.3575" stroke="#6F7BA8" stroke-width="1.5" stroke-linecap="round"/>
<path d="M90.412 15.7348L97.5659 16.3879M90.0855 19.3117L95.4509 19.8015M99.7625 12.08C100.474 12.145 101.131 12.4899 101.588 13.0389C102.045 13.588 102.265 14.2961 102.2 15.0076L101.547 22.1615C101.482 22.873 101.137 23.5295 100.588 23.9867C100.039 24.4439 99.3311 24.6642 98.6196 24.5992L94.1484 24.1911L89.4324 26.4656L89.6773 23.7829L87.8888 23.6196C87.1773 23.5546 86.5208 23.2097 86.0636 22.6607C85.6064 22.1116 85.3861 21.4035 85.4511 20.692L86.1041 13.5382C86.1691 12.8267 86.514 12.1701 87.0631 11.7129C87.6121 11.2558 88.3203 11.0354 89.0317 11.1004L99.7625 12.08Z" stroke="#6F7BA8" stroke-width="2" stroke-linecap="round" stroke-linejoin="round"/>
<path d="M7.87791 19.9224C10.7197 26.1759 16.0815 25.6258 18.4067 24.5692C19.5974 24.0281 21.1793 22.9304 22.3072 21.3218M23.6561 17.9395C23.8459 16.5313 23.6436 14.9234 22.8279 13.1285C21.0188 9.14743 17.2336 7.43726 14.2391 6.83198C12.8859 6.55782 11.9837 7.94396 12.5552 9.20152L12.6842 9.48557C13.2605 10.7537 13.7794 13.3105 12.7361 14.9464C12.2032 15.7817 11.0509 15.4173 10.5518 14.5619L10.1413 13.8593C9.66406 13.0427 8.5555 12.9194 8.1087 13.7527C7.67222 14.5616 7.39364 15.4462 7.28785 16.3592" stroke="#6F7BA8" stroke-width="1.5" stroke-linecap="round"/>
<path d="M14.4067 22.615C15.5432 25.1161 18.0162 24.7466 19.1102 24.2495C20.0688 23.8139 21.6991 22.3186 20.5626 19.8175C20.1222 18.8484 19.3064 18.4308 18.6337 18.2813C18.1642 18.1774 17.7801 18.6374 17.851 19.1134C17.9439 19.7333 17.5333 20.3358 17.0202 19.9748C16.5517 19.6444 16.2448 18.969 16.0598 18.5619C15.8056 18.0026 15.0781 17.896 14.7747 18.4307C14.166 19.5031 13.7013 21.0628 14.4067 22.615Z" stroke="#6F7BA8" stroke-width="1.5"/>
<path d="M25.7147 84.1716C26.7649 86.5314 27.2901 87.7116 26.744 88.8326C26.1979 89.9535 24.7953 90.5784 21.9888 91.8274L19.0119 93.1522C16.2055 94.4011 14.8019 95.0258 13.604 94.6802C12.4061 94.3346 11.8804 93.1554 10.8303 90.7956C9.7801 88.4358 9.25488 87.2556 9.801 86.1347C10.3471 85.0138 11.7497 84.3888 14.5562 83.1399L17.5331 81.8151C20.3395 80.5661 21.7431 79.9415 22.941 80.287C23.6096 80.4791 24.0683 80.9309 24.5249 81.7023" stroke="#6F7BA8" stroke-width="1.5" stroke-linecap="round"/>
<path d="M21.6239 82.9933L20.5184 84.8348C19.5781 86.4003 19.1072 87.1834 18.2989 87.5431C17.8152 87.7584 17.3005 87.782 16.5821 87.6923M12.6932 86.9677L13.5719 87.139L14.4505 87.3102" stroke="#6F7BA8" stroke-width="1.5" stroke-linecap="round"/>
<path d="M83.8886 43.7086C83.9696 44.2328 83.839 44.7677 83.5256 45.1956C83.2122 45.6235 82.7416 45.9094 82.2174 45.9904C81.6932 46.0714 81.1582 45.9408 80.7303 45.6274C80.3024 45.314 80.0165 44.8434 79.9355 44.3192C79.8545 43.795 79.9851 43.2601 80.2985 42.8321C80.612 42.4042 81.0825 42.1183 81.6067 42.0373C82.131 41.9563 82.6659 42.0869 83.0938 42.4003C83.5217 42.7138 83.8076 43.1843 83.8886 43.7086Z" stroke="#6F7BA8" stroke-width="1.5"/>
<path d="M83.5913 54.8849L84.1779 54.4179C84.0955 54.3146 83.9873 54.2348 83.8642 54.1867C83.7411 54.1387 83.6075 54.124 83.4769 54.1441C83.3463 54.1643 83.2233 54.2186 83.1204 54.3016C83.0176 54.3846 82.9385 54.4933 82.8911 54.6167L83.5913 54.8849ZM81.0891 49.5271C81.2879 49.5176 81.4749 49.4295 81.6087 49.2821C81.7426 49.1348 81.8125 48.9403 81.803 48.7414C81.7935 48.5426 81.7053 48.3556 81.558 48.2217C81.4106 48.0878 81.2162 48.018 81.0173 48.0275L81.0891 49.5271ZM83.9762 47.5704C83.7839 47.6213 83.6196 47.7466 83.5196 47.9186C83.4196 48.0906 83.392 48.2953 83.443 48.4876C83.4939 48.6799 83.6191 48.8442 83.7911 48.9442C83.9631 49.0442 84.1678 49.0717 84.3601 49.0208L83.9762 47.5704ZM76.9497 52.43L79.21 52.8155L79.4612 51.3368L77.2009 50.9514L76.9497 52.43ZM79.6442 53.4578L78.9065 56.8511L80.3724 57.1701L81.1099 53.7757L79.6442 53.4578ZM88.4969 49.2065L86.4583 50.256L87.1439 51.59L89.1826 50.5405L88.4969 49.2065ZM85.6224 53.0787L87.3497 56.0923L88.651 55.3459L86.9238 52.3333L85.6224 53.0787ZM83.155 58.1194L84.2915 55.1532L82.8911 54.6167L81.7545 57.5819L83.155 58.1194ZM87.3256 46.3792L85.5138 47.0698L86.0471 48.4719L87.8617 47.7797L87.3256 46.3792ZM79.4033 48.0137L77.4636 47.9025L77.377 49.3993L79.3149 49.5118L79.4033 48.0137ZM83.0057 55.3518L84.9843 57.8369L86.1573 56.9019L84.1789 54.4178L83.0057 55.3518ZM85.5138 47.0698L85.3169 47.1448L85.8416 48.5502L86.0471 48.4719L85.5138 47.0698ZM79.3149 49.5118L79.5354 49.5243L79.6114 48.0251L79.4013 48.014L79.3149 49.5118ZM81.4185 59.5209C82.2072 59.3991 82.8702 58.8636 83.155 58.1194L81.7545 57.5819C81.7092 57.7013 81.6331 57.8065 81.5338 57.8867C81.4346 57.9669 81.3157 58.0193 81.1896 58.0385L81.4185 59.5209ZM87.3497 56.0923C87.4081 56.1942 87.4409 56.3087 87.4452 56.426C87.4494 56.5434 87.425 56.66 87.3741 56.7658C87.3232 56.8716 87.2473 56.9634 87.153 57.0333C87.0586 57.1031 86.9487 57.149 86.8326 57.1669L87.0616 58.6493C87.4183 58.5943 87.7563 58.4532 88.0462 58.2384C88.3362 58.0235 88.5695 57.7413 88.726 57.4161C88.8825 57.0908 88.9574 56.7324 88.9444 56.3717C88.9313 56.011 88.8306 55.659 88.651 55.3459L87.3497 56.0923ZM86.4583 50.256C86.2502 50.363 86.0281 50.4712 85.8563 50.6171L86.83 51.7589C86.8209 51.7653 86.8279 51.7582 86.8819 51.7276C86.9386 51.6955 87.0156 51.6563 87.1439 51.59L86.4583 50.256ZM86.9238 52.3333C86.8739 52.2482 86.8255 52.1623 86.7788 52.0754C86.75 52.0202 86.7485 52.0103 86.752 52.0198L85.3145 52.4483C85.3782 52.6641 85.5061 52.8761 85.6224 53.0787L86.9238 52.3333ZM85.8563 50.6171C85.5984 50.8371 85.4098 51.1272 85.3136 51.4523C85.2175 51.7774 85.2178 52.1234 85.3145 52.4483L86.752 52.0198C86.7383 51.9735 86.7385 51.9241 86.7523 51.8778C86.7662 51.8315 86.7932 51.7902 86.83 51.7589L85.8563 50.6171ZM88.9124 48.3915C88.9378 48.5538 88.9113 48.72 88.8367 48.8663C88.7621 49.0126 88.6432 49.1317 88.4969 49.2065L89.1826 50.5405C89.6089 50.3217 89.9554 49.9743 90.173 49.5474C90.3906 49.1206 90.4682 48.636 90.3948 48.1625L88.9124 48.3915ZM78.9065 56.8511C78.8298 57.2038 78.84 57.5698 78.9363 57.9176C79.0327 58.2654 79.2123 58.5846 79.4596 58.8474C79.7069 59.1103 80.0145 59.3089 80.3558 59.4263C80.6971 59.5436 81.0619 59.5761 81.4185 59.5209L81.1896 58.0385C81.0735 58.0565 80.9549 58.046 80.8438 58.0078C80.7328 57.9697 80.6327 57.905 80.5523 57.8195C80.4718 57.734 80.4134 57.6302 80.3821 57.517C80.3507 57.4039 80.3474 57.2848 80.3724 57.1701L78.9065 56.8511ZM79.21 52.8155C79.3523 52.8391 79.4376 52.8542 79.5014 52.8676C79.5621 52.8805 79.5699 52.8854 79.5603 52.8818L80.1441 51.4995C79.9363 51.4122 79.6919 51.3761 79.4612 51.3368L79.21 52.8155ZM81.109 53.7769C81.1595 53.5465 81.2166 53.307 81.2132 53.0818L79.7134 53.1071C79.7129 53.097 79.7144 53.1069 79.7047 53.1681C79.6863 53.265 79.6661 53.3616 79.6442 53.4578L81.109 53.7769ZM79.5603 52.8818C79.6048 52.9005 79.643 52.9318 79.6702 52.9717C79.6974 53.0117 79.7124 53.0587 79.7134 53.1071L81.2132 53.0818C81.2074 52.7429 81.1033 52.4129 80.9135 52.132C80.7237 51.8511 80.4564 51.6313 80.1441 51.4995L79.5603 52.8818ZM75.0765 50.5287C75.2265 51.5002 75.9823 52.2658 76.9497 52.43L77.2009 50.9514C77.0389 50.9242 76.8896 50.8465 76.7744 50.7295C76.6591 50.6125 76.5837 50.4621 76.5589 50.2997L75.0765 50.5287ZM76.5589 50.2997C76.4829 49.8076 76.8807 49.3697 77.377 49.3993L77.4636 47.9025C77.1238 47.8827 76.7849 47.939 76.4698 48.0676C76.1547 48.1961 75.8723 48.3935 75.6434 48.6453C75.4144 48.8971 75.2447 49.1969 75.1466 49.5228C75.0485 49.8487 75.0246 50.1924 75.0765 50.5287L76.5589 50.2997ZM84.9843 57.8369C85.2281 58.1437 85.5479 58.3806 85.913 58.5233C86.278 58.6659 86.6743 58.7094 87.0616 58.6493L86.8326 57.1669C86.5757 57.2066 86.3181 57.1047 86.1573 56.9019L84.9843 57.8369ZM90.3948 48.1625C90.3428 47.8263 90.2163 47.506 90.0245 47.2249C89.8328 46.9439 89.5806 46.7093 89.2864 46.5384C88.9923 46.3674 88.6637 46.2643 88.3246 46.2368C87.9855 46.2092 87.6435 46.258 87.3256 46.3792L87.8617 47.7797C87.9707 47.7382 88.0866 47.7216 88.2029 47.7311C88.3191 47.7405 88.4318 47.7759 88.5326 47.8345C88.6335 47.8932 88.7199 47.9736 88.7856 48.07C88.8513 48.1664 88.8946 48.2762 88.9124 48.3915L90.3948 48.1625ZM81.0173 48.0275C80.5486 48.05 80.0797 48.0496 79.6106 48.0262L79.5354 49.5243C80.0535 49.5508 80.5714 49.5518 81.0891 49.5271L81.0173 48.0275ZM85.3169 47.1448C84.8768 47.3086 84.4299 47.4504 83.9762 47.5704L84.3601 49.0208C84.8609 48.8877 85.3549 48.7304 85.8405 48.5493L85.3169 47.1448Z" fill="#6F7BA8"/>
<path d="M90.9579 53.747C92.6439 54.292 93.7562 55.1847 93.9321 56.3232C94.0462 57.0624 93.7528 57.8221 93.138 58.5455M76.2247 56.0228C74.7817 57.0512 73.9906 58.2378 74.1665 59.3763C74.5458 61.8322 79.2779 63.1401 84.7362 62.297C86.5359 62.019 88.1913 61.5407 89.5857 60.9388" stroke="#6F7BA8" stroke-width="1.5" stroke-linecap="round"/>
<path fill-rule="evenodd" clip-rule="evenodd" d="M48.3876 47.1666L50.4316 48.6016C50.7305 48.8117 51.0876 48.923 51.4529 48.9198C51.8182 48.9167 52.1734 48.7993 52.4686 48.5841L54.4864 47.1115L54.9169 49.572C54.9801 49.9318 55.1543 50.2627 55.4151 50.5185C55.6759 50.7743 56.0102 50.942 56.3711 50.9983L58.8386 51.385L57.4036 53.4299C57.1936 53.7288 57.0823 54.0859 57.0854 54.4512C57.0886 54.8165 57.206 55.1717 57.4211 55.4669L58.8937 57.4846L56.4332 57.9151C56.0734 57.9781 55.7424 58.1522 55.4864 58.4128C55.2305 58.6734 55.0626 59.0076 55.0061 59.3685L54.6202 61.836L52.5754 60.401C52.2764 60.1911 51.9192 60.08 51.5539 60.0833C51.1886 60.0866 50.8335 60.2041 50.5384 60.4194L48.5206 61.892L48.0901 59.4315C48.0271 59.0717 47.8531 58.7406 47.5925 58.4847C47.3318 58.2288 46.9976 58.0608 46.6367 58.0044L44.1692 57.6176L45.6042 55.5736C45.8142 55.2747 45.9253 54.9175 45.922 54.5522C45.9187 54.1869 45.8012 53.8318 45.5859 53.5366L44.1132 51.5189L46.5737 51.0875C46.9334 51.0246 47.2644 50.8507 47.5203 50.5902C47.7762 50.3297 47.9443 49.9957 48.0009 49.635L48.3876 47.1666ZM47.5231 47.031C47.5461 46.8842 47.6061 46.7457 47.6975 46.6285C47.7888 46.5113 47.9085 46.4193 48.0453 46.3612C48.182 46.3031 48.3313 46.2807 48.4791 46.2963C48.6268 46.3118 48.7682 46.3647 48.8899 46.45L50.9347 47.885C51.0842 47.99 51.2627 48.0457 51.4454 48.0441C51.6281 48.0425 51.8056 47.9838 51.9532 47.8763L53.971 46.4045C54.0911 46.317 54.2314 46.2615 54.3789 46.2432C54.5263 46.2249 54.676 46.2445 54.8138 46.3001C54.9516 46.3557 55.073 46.4455 55.1665 46.5609C55.26 46.6764 55.3225 46.8138 55.3482 46.9601L55.7787 49.4206C55.8102 49.6007 55.8972 49.7664 56.0276 49.8944C56.158 50.0225 56.3253 50.1065 56.5059 50.1346L58.9734 50.5205C59.1203 50.5434 59.259 50.6034 59.3763 50.6948C59.4936 50.7863 59.5857 50.906 59.6438 51.0429C59.7019 51.1798 59.7243 51.3292 59.7086 51.4771C59.693 51.625 59.6399 51.7665 59.5544 51.8881L58.1194 53.9321C58.0143 54.0816 57.9587 54.2601 57.9603 54.4428C57.9618 54.6254 58.0205 54.803 58.1281 54.9506L59.6007 56.9693C59.6883 57.0893 59.7438 57.2297 59.7621 57.3772C59.7803 57.5246 59.7607 57.6743 59.7051 57.8121C59.6496 57.9499 59.5598 58.0712 59.4443 58.1647C59.3288 58.2582 59.1915 58.3208 59.0451 58.3465L56.5846 58.777C56.4047 58.8084 56.2391 58.8953 56.1111 59.0256C55.983 59.1558 55.899 59.3228 55.8706 59.5033L55.4847 61.9716C55.4618 62.1186 55.4018 62.2572 55.3104 62.3745C55.219 62.4919 55.0992 62.5839 54.9623 62.6421C54.8255 62.7002 54.676 62.7225 54.5281 62.7069C54.3803 62.6912 54.2388 62.6381 54.1171 62.5526L52.0731 61.1176C51.9237 61.0126 51.7451 60.957 51.5625 60.9585C51.3798 60.9601 51.2022 61.0188 51.0546 61.1264L49.036 62.599C48.9159 62.6866 48.7754 62.742 48.6279 62.7603C48.4804 62.7785 48.3307 62.7588 48.1929 62.7031C48.0551 62.6474 47.9337 62.5576 47.8403 62.442C47.7468 62.3264 47.6843 62.1889 47.6587 62.0425L47.2282 59.582C47.1969 59.4021 47.1099 59.2365 46.9797 59.1085C46.8495 58.9804 46.6824 58.8963 46.502 58.868L44.0336 58.483C43.8867 58.4601 43.748 58.4001 43.6307 58.3087C43.5134 58.2173 43.4213 58.0975 43.3632 57.9606C43.305 57.8237 43.2827 57.6743 43.2984 57.5264C43.314 57.3785 43.3671 57.2371 43.4526 57.1154L44.8876 55.0705C44.9927 54.9211 45.0483 54.7425 45.0467 54.5599C45.0451 54.3772 44.9865 54.1996 44.8789 54.052L43.4062 52.0343C43.3187 51.9141 43.2632 51.7737 43.245 51.6262C43.2268 51.4787 43.2464 51.3289 43.3021 51.1911C43.3578 51.0533 43.4477 50.932 43.5633 50.8385C43.6788 50.7451 43.8163 50.6826 43.9627 50.657L46.4232 50.2256C46.603 50.1941 46.7684 50.1071 46.8963 49.9769C47.0241 49.8466 47.1081 49.6797 47.1364 49.4994L47.5231 47.031ZM55 54.5C55 55.4283 54.6312 56.3185 53.9749 56.9749C53.3185 57.6313 52.4283 58 51.5 58C50.5717 58 49.6815 57.6313 49.0251 56.9749C48.3687 56.3185 48 55.4283 48 54.5C48 53.5718 48.3687 52.6815 49.0251 52.0251C49.6815 51.3688 50.5717 51 51.5 51C52.4283 51 53.3185 51.3688 53.9749 52.0251C54.6312 52.6815 55 53.5718 55 54.5ZM55.875 54.5C55.875 55.6603 55.4141 56.7731 54.5936 57.5936C53.7731 58.4141 52.6603 58.875 51.5 58.875C50.3397 58.875 49.2269 58.4141 48.4064 57.5936C47.5859 56.7731 47.125 55.6603 47.125 54.5C47.125 53.3397 47.5859 52.2269 48.4064 51.4064C49.2269 50.5859 50.3397 50.125 51.5 50.125C52.6603 50.125 53.7731 50.5859 54.5936 51.4064C55.4141 52.2269 55.875 53.3397 55.875 54.5Z" fill="#6F7BA8"/>
<path d="M87.5427 91.5809L99.978 82.5977M99.978 82.5977L97.2244 82.149M99.978 82.5977L99.5412 85.3488M103.508 96.986L100.532 97.5855L98.8536 89.2529C98.8218 89.095 98.854 88.931 98.9432 88.7969C99.0323 88.6628 99.1711 88.5696 99.3289 88.5378L101.114 88.1781C101.272 88.1463 101.436 88.1785 101.57 88.2677C101.705 88.3568 101.798 88.4956 101.83 88.6534L103.508 96.986ZM97.5562 98.185L94.5803 98.7845L93.2614 92.2374C93.2296 92.0796 93.2618 91.9155 93.351 91.7814C93.4401 91.6473 93.5789 91.5541 93.7367 91.5223L95.5223 91.1626C95.6801 91.1308 95.8442 91.1631 95.9783 91.2522C96.1124 91.3413 96.2056 91.4801 96.2374 91.6379L97.5562 98.185ZM91.6043 99.3839L88.6284 99.9834L87.6692 95.2219C87.6374 95.0641 87.6697 94.9 87.7588 94.7659C87.8479 94.6318 87.9867 94.5386 88.1445 94.5068L89.9301 94.1471C90.0879 94.1154 90.252 94.1476 90.3861 94.2367C90.5202 94.3258 90.6134 94.4646 90.6452 94.6224L91.6043 99.3839Z" stroke="#6F7BA8" stroke-linecap="round" stroke-linejoin="round"/>
<path d="M60.7376 16.8084C60.3159 12.8525 56.7642 9.98522 52.8084 10.407C48.8525 10.8287 45.9852 14.3803 46.407 18.3362C46.8287 22.292 50.3803 25.1593 54.3362 24.7376C58.292 24.3158 61.1593 20.7642 60.7376 16.8084Z" stroke="#6F7BA8" stroke-miterlimit="10"/>
<path d="M57.4974 14.7382L53.8318 19.9602L51.8513 18.3596M51.4366 20.2155L49.4562 18.615M55.1728 14.9861L53.4837 17.393" stroke="#6F7BA8" stroke-linecap="round" stroke-linejoin="round"/>
<path fill-rule="evenodd" clip-rule="evenodd" d="M56.4202 89.6095C56.1694 89.542 55.903 89.5118 55.6638 89.5378C55.5221 89.5511 55.3841 89.5905 55.2567 89.654C55.1553 89.7051 55.0656 89.7767 54.9933 89.8643C54.9211 89.952 54.8678 90.0537 54.837 90.163C54.7619 90.4422 54.8581 90.6772 54.9451 90.8129C55.0309 90.9493 55.1442 91.0489 55.2387 91.1185C55.4334 91.2612 55.6784 91.3676 55.9293 91.435C56.1784 91.502 56.4446 91.5331 56.6837 91.5071C56.8022 91.4948 56.9493 91.4652 57.0928 91.3905C57.194 91.3394 57.2834 91.2678 57.3555 91.1803C57.4275 91.0928 57.4806 90.9913 57.5114 90.8822C57.5396 90.7721 57.5445 90.6575 57.526 90.5454C57.5074 90.4334 57.4657 90.3264 57.4036 90.2313C57.3252 90.1125 57.2256 90.0092 57.1097 89.9266C56.9007 89.7806 56.6672 89.6732 56.4202 89.6095Z" fill="#6F7BA8"/>
<path d="M58.6823 88.1073C58.8847 87.9166 59.2382 87.7188 59.6592 87.832C60.0784 87.9447 60.285 88.2932 60.3653 88.5599C60.4489 88.8384 60.4414 89.1469 60.3645 89.433C60.2876 89.719 60.1393 89.9896 59.9275 90.1879C59.7243 90.3783 59.3716 90.5764 58.9507 90.4632C58.5306 90.3502 58.324 90.0017 58.2437 89.735C58.1631 89.4498 58.1633 89.1479 58.2442 88.8628C58.3212 88.5767 58.4695 88.3061 58.6823 88.1073ZM54.5035 86.4464C54.0842 86.3337 53.7309 86.5307 53.5269 86.7208C53.3139 86.9274 53.1626 87.189 53.0896 87.4766C53.0129 87.7618 53.0053 88.0711 53.0899 88.3491C53.1702 88.6157 53.376 88.964 53.7969 89.0772C54.2162 89.1899 54.5697 88.9921 54.7738 88.8019C54.9849 88.6026 55.1332 88.332 55.2099 88.0468C55.2868 87.7607 55.2942 87.4522 55.2107 87.1737C55.1304 86.907 54.9244 86.5596 54.5035 86.4464Z" fill="#6F7BA8"/>
<path fill-rule="evenodd" clip-rule="evenodd" d="M53.7991 79.0594C53.2716 78.9175 52.6237 78.9082 52.025 79.1958C51.404 79.494 50.9244 80.0717 50.6936 80.9299L50.2597 82.5433C50.1927 82.7961 50.0995 83.3137 50.1304 83.7743C50.1405 83.9253 50.166 84.1284 50.2477 84.3282C49.8991 84.7265 49.626 85.185 49.4417 85.6812C49.29 86.0706 49.1757 86.4922 49.0779 86.8832C48.4577 86.9283 47.8036 87.014 47.4859 87.1165C47.3216 87.1738 47.1861 87.2931 47.1085 87.4488C47.0308 87.6046 47.0171 87.7845 47.0702 87.9503C47.1234 88.116 47.2392 88.2544 47.3929 88.336C47.5467 88.4175 47.7262 88.4358 47.8932 88.3868C48.0102 88.3492 48.3423 88.2929 48.7703 88.2496C48.7189 88.677 48.7376 89.0837 48.8134 89.4698C48.6392 89.5229 48.4658 89.5785 48.2932 89.6367C48.2098 89.6635 48.1324 89.7065 48.0656 89.7632C47.9988 89.8199 47.9438 89.8891 47.9038 89.9671C47.8637 90.045 47.8394 90.1301 47.8323 90.2174C47.8251 90.3048 47.8352 90.3926 47.862 90.4761C47.8888 90.5595 47.9318 90.6368 47.9885 90.7036C48.0452 90.7705 48.1145 90.8255 48.1924 90.8655C48.2704 90.9055 48.3554 90.9298 48.4428 90.937C48.5301 90.9441 48.618 90.934 48.7014 90.9072L48.8338 90.8636C48.966 90.8209 49.1186 90.7707 49.2826 90.7227C49.6504 91.3762 50.1718 91.9448 50.7439 92.421C52.0845 93.537 53.8307 94.2682 55.0601 94.5988C56.2894 94.9294 58.1671 95.1718 59.8864 94.8797C60.6202 94.7546 61.3573 94.5244 62.0024 94.1433C62.1202 94.2671 62.2271 94.3871 62.32 94.4904L62.4126 94.5945C62.5313 94.7258 62.6972 94.8047 62.8739 94.8137C63.0506 94.8227 63.2237 94.7611 63.3551 94.6425C63.4864 94.5239 63.5652 94.358 63.5742 94.1812C63.5832 94.0045 63.5217 93.8314 63.4031 93.7001L63.3231 93.6104C63.2452 93.5231 63.1483 93.4142 63.0367 93.2948C63.2957 92.9997 63.5169 92.6566 63.6869 92.261C64.0355 92.5132 64.2936 92.7282 64.3768 92.8196C64.4968 92.9458 64.6612 93.02 64.8351 93.0266C65.0091 93.0331 65.1787 92.9715 65.3078 92.8548C65.4369 92.738 65.5153 92.5755 65.5262 92.4018C65.5372 92.2281 65.4798 92.057 65.3664 91.925C65.1429 91.677 64.62 91.2747 64.1053 90.9244C64.2275 90.5233 64.3239 90.1147 64.3937 89.7012C64.483 89.1798 64.4765 88.6464 64.3748 88.1273C64.5457 87.9954 64.6696 87.8325 64.7549 87.7071C64.9771 87.357 65.1472 86.9763 65.2596 86.5771L65.6933 84.9646C65.9243 84.1055 65.7989 83.3661 65.4115 82.7958C65.0386 82.2468 64.4726 81.9297 63.9451 81.7879C63.5946 81.6936 63.1958 81.731 62.8675 81.7837C62.5112 81.8476 62.1581 81.9281 61.8094 82.0251L61.598 82.0816L61.5961 82.082C61.3339 82.1525 61.1013 82.2161 60.897 82.2597C60.7706 82.2865 60.6722 82.3031 60.6017 82.3093L60.5439 82.3122C60.3583 82.2593 60.1763 82.1943 59.9992 82.1178L59.8646 82.0632C59.4353 81.8909 58.9953 81.7467 58.5473 81.6315C57.884 81.4532 57.4983 81.3872 57.1911 81.3442L57.0473 81.324C56.8557 81.3013 56.6657 81.2662 56.4786 81.2189L56.43 81.1874C56.3496 81.1281 56.2726 81.0644 56.1994 80.9964C56.0235 80.8324 55.8516 80.6643 55.6837 80.492L55.5277 80.3358C55.2749 80.0774 55.01 79.831 54.7341 79.5973C54.4768 79.3862 54.1496 79.1536 53.7991 79.0594ZM50.7692 90.5559C50.9979 90.8495 51.2773 91.1292 51.5972 91.3958C52.749 92.3541 54.3053 93.014 55.4066 93.3101C56.508 93.6063 58.1845 93.8158 59.6624 93.5647C60.0728 93.4945 60.4549 93.3927 60.8 93.2534C60.6483 93.1831 60.5285 93.0583 60.4644 92.9039C60.4003 92.7494 60.3966 92.5765 60.4539 92.4194C60.5112 92.2623 60.6254 92.1325 60.7739 92.0556C60.9224 91.9787 61.0943 91.9604 61.2557 92.0043C61.5366 92.0798 61.8055 92.2276 62.0457 92.3963C62.2647 92.1391 62.4329 91.8427 62.5414 91.5227C62.3828 91.4295 62.2151 91.3529 62.0409 91.2942C61.87 91.2482 61.7243 91.1363 61.636 90.9829C61.5477 90.8296 61.5239 90.6475 61.5698 90.4766C61.6158 90.3057 61.7277 90.16 61.8811 90.0717C62.0344 89.9834 62.2165 89.9596 62.3874 90.0055C62.5549 90.0506 62.737 90.1272 62.918 90.2145C62.9818 89.9774 63.0367 89.7425 63.0751 89.4968C63.164 88.9265 63.1392 88.3919 62.8865 87.8551C62.7839 87.641 62.6566 87.4398 62.507 87.2555C62.3963 87.1173 62.3451 86.9408 62.3646 86.7648C62.3841 86.5888 62.4728 86.4278 62.611 86.3172C62.7492 86.2065 62.9258 86.1553 63.1017 86.1748C63.2777 86.1943 63.4387 86.283 63.5494 86.4212C63.6321 86.5245 63.7081 86.6279 63.7774 86.7312C63.8679 86.5455 63.9403 86.3448 63.9719 86.2271L64.4046 84.618C64.5493 84.0802 64.4478 83.7517 64.3077 83.5464C64.1546 83.321 63.8949 83.1562 63.5985 83.0765C63.5384 83.0604 63.3782 83.0532 63.0815 83.1015C62.8049 83.1468 62.488 83.2256 62.1517 83.3148L61.96 83.3664C61.694 83.4377 61.4188 83.512 61.1792 83.5636C61.0276 83.5965 60.8717 83.6246 60.7251 83.6387C60.5567 83.6586 60.386 83.6483 60.2211 83.6081C59.9673 83.5394 59.719 83.452 59.478 83.3466L59.3643 83.3003C58.9856 83.147 58.5968 83.02 58.2007 82.9202C57.5925 82.7566 57.2601 82.7013 57.0043 82.6657L56.8818 82.6484C56.6594 82.619 56.4276 82.587 56.108 82.5011C55.925 82.4519 55.7679 82.3544 55.6573 82.2758C55.5324 82.186 55.4135 82.0881 55.3012 81.9829C55.1199 81.8181 54.9191 81.6157 54.7247 81.4207L54.5847 81.2799C54.3386 81.034 54.1041 80.8061 53.8874 80.6289C53.6551 80.4375 53.5127 80.3642 53.4526 80.348C53.157 80.2686 52.8489 80.2806 52.6034 80.3988C52.3792 80.5062 52.1264 80.7404 51.982 81.2773L51.5495 82.8855C51.5179 83.0032 51.4799 83.2132 51.465 83.4192C51.5779 83.3648 51.6955 83.3135 51.8177 83.2654C51.8995 83.2336 51.9866 83.2183 52.0743 83.2202C52.1619 83.2222 52.2483 83.2414 52.3286 83.2767C52.4088 83.3121 52.4813 83.3629 52.5419 83.4263C52.6025 83.4896 52.65 83.5643 52.6817 83.646C52.7135 83.7277 52.7288 83.8149 52.7268 83.9026C52.7249 83.9902 52.7057 84.0766 52.6703 84.1569C52.635 84.2371 52.5842 84.3096 52.5208 84.3702C52.4575 84.4308 52.3828 84.4783 52.3011 84.51C52.0552 84.6067 51.8455 84.7161 51.672 84.8383C51.1848 85.1771 50.8946 85.626 50.6854 86.164C50.5954 86.3959 50.524 86.6272 50.4604 86.8635C50.6619 86.8781 50.8576 86.904 51.0252 86.949C51.1961 86.995 51.3417 87.1069 51.43 87.2603C51.5184 87.4136 51.5422 87.5957 51.4962 87.7666C51.4503 87.9375 51.3383 88.0831 51.185 88.1715C51.0317 88.2598 50.8495 88.2836 50.6786 88.2377C50.5876 88.2132 50.4037 88.1914 50.131 88.1844C50.0623 88.5325 50.0626 88.867 50.1216 89.1888C50.4161 89.1571 50.7138 89.1764 51.0017 89.2458C51.1633 89.2888 51.3029 89.3909 51.3928 89.5319C51.4827 89.6729 51.5164 89.8425 51.4871 90.0072C51.4579 90.1718 51.3679 90.3195 51.235 90.421C51.1021 90.5224 50.9357 90.5711 50.7692 90.5559Z" fill="#6F7BA8"/>
</svg>
