<svg width="14" height="14" viewBox="0 0 14 14" fill="none" xmlns="http://www.w3.org/2000/svg">
<path fill-rule="evenodd" clip-rule="evenodd" d="M13.655 1.335C13.7863 1.20371 13.86 1.02566 13.86 0.839997C13.86 0.654336 13.7863 0.476279 13.655 0.344997C13.5237 0.213715 13.3457 0.139961 13.16 0.139961C12.9743 0.139961 12.7963 0.213715 12.665 0.344997L6.99999 6.01L1.33499 0.344997C1.20371 0.213715 1.02565 0.139961 0.839989 0.139961C0.654328 0.139961 0.476271 0.213715 0.344989 0.344997C0.213707 0.476279 0.139954 0.654336 0.139954 0.839997C0.139954 1.02566 0.213707 1.20371 0.344989 1.335L6.00999 7L0.344989 12.665C0.213707 12.7963 0.139954 12.9743 0.139954 13.16C0.139954 13.3457 0.213707 13.5237 0.344989 13.655C0.476271 13.7863 0.654328 13.86 0.839989 13.86C1.02565 13.86 1.20371 13.7863 1.33499 13.655L6.99999 7.99L12.665 13.655C12.7963 13.7863 12.9743 13.86 13.16 13.86C13.3457 13.86 13.5237 13.7863 13.655 13.655C13.7863 13.5237 13.86 13.3457 13.86 13.16C13.86 12.9743 13.7863 12.7963 13.655 12.665L7.98999 7L13.655 1.335Z" fill="black"/>
</svg>
