<svg width="24" height="24" viewBox="0 0 24 24" fill="none" xmlns="http://www.w3.org/2000/svg">
<path d="M12 0C9.62663 0 7.30655 0.703788 5.33316 2.02236C3.35977 3.34094 1.8217 5.21509 0.913451 7.4078C0.00519943 9.60051 -0.232441 12.0133 0.230582 14.3411C0.693605 16.6689 1.83649 18.8071 3.51472 20.4853C5.19295 22.1635 7.33115 23.3064 9.65892 23.7694C11.9867 24.2324 14.3995 23.9948 16.5922 23.0866C18.7849 22.1783 20.6591 20.6402 21.9776 18.6668C23.2962 16.6935 24 14.3734 24 12C24 8.8174 22.7357 5.76516 20.4853 3.51472C18.2349 1.26428 15.1826 0 12 0ZM5.29001 5.29C6.8942 3.72718 8.99295 2.77237 11.2251 2.58985C13.4573 2.40734 15.6832 3.00854 17.52 4.29C17.5494 4.3144 17.573 4.34497 17.5892 4.37953C17.6055 4.4141 17.6139 4.45182 17.6139 4.49C17.6139 4.52818 17.6055 4.5659 17.5892 4.60047C17.573 4.63503 17.5494 4.6656 17.52 4.69L4.67001 17.56C4.6447 17.5879 4.61383 17.6102 4.57938 17.6255C4.54494 17.6407 4.50768 17.6486 4.47001 17.6486C4.43233 17.6486 4.39507 17.6407 4.36063 17.6255C4.32618 17.6102 4.29531 17.5879 4.27001 17.56C2.95912 15.7322 2.34006 13.4982 2.52322 11.2564C2.70637 9.01464 3.67983 6.91077 5.27001 5.32L5.29001 5.29ZM18.75 18.76C17.1557 20.3404 15.0548 21.3073 12.8174 21.4903C10.58 21.6732 8.34982 21.0604 6.52001 19.76C6.49063 19.7356 6.467 19.705 6.45077 19.6705C6.43455 19.6359 6.42614 19.5982 6.42614 19.56C6.42614 19.5218 6.43455 19.4841 6.45077 19.4495C6.467 19.415 6.49063 19.3844 6.52001 19.36L19.37 6.49C19.3944 6.46063 19.425 6.43699 19.4595 6.42077C19.4941 6.40454 19.5318 6.39613 19.57 6.39613C19.6082 6.39613 19.6459 6.40454 19.6805 6.42077C19.715 6.43699 19.7456 6.46063 19.77 6.49C21.0809 8.31778 21.6999 10.5518 21.5168 12.7936C21.3336 15.0354 20.3602 17.1392 18.77 18.73L18.75 18.76Z" fill="#DA0000"/>
</svg>
