<svg width="63" height="25" viewBox="0 0 63 25" fill="none" xmlns="http://www.w3.org/2000/svg">
<path d="M2.76588 11C2.57921 11 2.44388 10.958 2.35988 10.874C2.28521 10.79 2.24788 10.664 2.24788 10.496V1.998C2.24788 1.82067 2.28521 1.69 2.35988 1.606C2.44388 1.522 2.57921 1.48 2.76588 1.48H6.41988C7.50254 1.48 8.32388 1.732 8.88388 2.236C9.45321 2.74 9.73788 3.48667 9.73788 4.476C9.73788 5.12933 9.58388 5.68933 9.27588 6.156C8.96788 6.61333 8.51988 6.95867 7.93188 7.192L9.48588 10.636C9.51388 10.692 9.52788 10.7433 9.52788 10.79C9.52788 10.93 9.44388 11 9.27588 11H8.12788C8.00654 11 7.91788 10.986 7.86188 10.958C7.80588 10.9207 7.75454 10.8507 7.70788 10.748L6.29388 7.43H4.03988V10.496C4.03988 10.664 3.99788 10.79 3.91388 10.874C3.83921 10.958 3.70388 11 3.50788 11H2.76588ZM6.05588 6.086C6.70921 6.086 7.18988 5.96 7.49788 5.708C7.80588 5.456 7.95988 5.04533 7.95988 4.476C7.95988 3.916 7.81988 3.50533 7.53988 3.244C7.25988 2.98267 6.83521 2.852 6.26588 2.852H4.03988V6.086H6.05588ZM14.7333 11.21C14.0053 11.21 13.3473 11.0887 12.7593 10.846C12.1713 10.594 11.6999 10.2113 11.3453 9.698C10.9999 9.17533 10.8273 8.52667 10.8273 7.752C10.8273 6.548 11.1493 5.63333 11.7933 5.008C12.4373 4.38267 13.3519 4.07 14.5373 4.07C15.7133 4.07 16.5999 4.37333 17.1973 4.98C17.8039 5.58667 18.1073 6.464 18.1073 7.612C18.1073 7.93867 17.9579 8.102 17.6593 8.102H12.5213C12.5213 8.718 12.7359 9.194 13.1653 9.53C13.5946 9.85667 14.1919 10.02 14.9573 10.02C15.6946 10.02 16.3573 9.852 16.9453 9.516C17.0106 9.47867 17.0619 9.46 17.0993 9.46C17.1646 9.46 17.2159 9.502 17.2533 9.586L17.5893 10.188C17.6173 10.244 17.6313 10.2953 17.6313 10.342C17.6313 10.4073 17.5893 10.468 17.5053 10.524C17.1226 10.7573 16.7073 10.93 16.2593 11.042C15.8206 11.154 15.3119 11.21 14.7333 11.21ZM16.4833 7.066C16.4833 6.48733 16.3199 6.03467 15.9933 5.708C15.6759 5.38133 15.1953 5.218 14.5513 5.218C13.8979 5.218 13.3939 5.386 13.0393 5.722C12.6939 6.058 12.5213 6.506 12.5213 7.066H16.4833ZM22.1904 11.21C21.2758 11.21 20.5478 10.9347 20.0064 10.384C19.4651 9.824 19.1944 9.04 19.1944 8.032C19.1944 7.248 19.3671 6.55733 19.7124 5.96C20.0578 5.35333 20.5478 4.88667 21.1824 4.56C21.8264 4.23333 22.5731 4.07 23.4224 4.07C24.6078 4.07 25.6111 4.35 26.4324 4.91V10.622C26.4324 10.762 26.3998 10.86 26.3344 10.916C26.2784 10.972 26.1758 11 26.0264 11H25.2564C25.1538 11 25.0744 10.9813 25.0184 10.944C24.9718 10.8973 24.9391 10.8273 24.9204 10.734L24.8084 10.188C24.5191 10.5427 24.1598 10.804 23.7304 10.972C23.3104 11.1307 22.7971 11.21 22.1904 11.21ZM22.8624 9.936C23.3571 9.936 23.7911 9.79133 24.1644 9.502C24.5471 9.21267 24.7384 8.83 24.7384 8.354V5.624C24.5424 5.52133 24.3418 5.45133 24.1364 5.414C23.9404 5.36733 23.6978 5.344 23.4084 5.344C22.6711 5.344 22.0784 5.57733 21.6304 6.044C21.1824 6.51067 20.9584 7.15467 20.9584 7.976C20.9584 8.648 21.1124 9.14267 21.4204 9.46C21.7378 9.77733 22.2184 9.936 22.8624 9.936ZM28.6057 11C28.4191 11 28.2837 10.958 28.1997 10.874C28.1251 10.79 28.0877 10.664 28.0877 10.496V1.998C28.0877 1.82067 28.1251 1.69 28.1997 1.606C28.2837 1.522 28.4191 1.48 28.6057 1.48H29.3477C29.5344 1.48 29.6697 1.522 29.7537 1.606C29.8377 1.69 29.8797 1.82067 29.8797 1.998V10.496C29.8797 10.664 29.8377 10.79 29.7537 10.874C29.6791 10.958 29.5437 11 29.3477 11H28.6057ZM34.0896 11C33.9029 11 33.7676 10.958 33.6836 10.874C33.5996 10.79 33.5576 10.664 33.5576 10.496V2.852H31.1076C30.9209 2.852 30.7902 2.81467 30.7156 2.74C30.6502 2.66533 30.6176 2.53933 30.6176 2.362V1.984C30.6176 1.80667 30.6502 1.68067 30.7156 1.606C30.7902 1.522 30.9209 1.48 31.1076 1.48H37.7996C37.9862 1.48 38.1169 1.522 38.1916 1.606C38.2662 1.68067 38.3036 1.80667 38.3036 1.984V2.362C38.3036 2.53933 38.2662 2.66533 38.1916 2.74C38.1169 2.81467 37.9862 2.852 37.7996 2.852H35.3496V10.496C35.3496 10.664 35.3076 10.79 35.2236 10.874C35.1489 10.958 35.0136 11 34.8176 11H34.0896ZM39.7389 3.118C39.5149 3.118 39.3422 3.05267 39.2209 2.922C39.0996 2.79133 39.0389 2.63267 39.0389 2.446V2.152C39.0389 1.96533 39.0996 1.80667 39.2209 1.676C39.3422 1.54533 39.5149 1.48 39.7389 1.48H40.3409C40.5649 1.48 40.7376 1.54533 40.8589 1.676C40.9896 1.80667 41.0549 1.96533 41.0549 2.152V2.446C41.0549 2.63267 40.9896 2.79133 40.8589 2.922C40.7376 3.05267 40.5649 3.118 40.3409 3.118H39.7389ZM39.6829 11C39.4962 11 39.3609 10.958 39.2769 10.874C39.1929 10.79 39.1509 10.664 39.1509 10.496V4.798C39.1509 4.62067 39.1929 4.49 39.2769 4.406C39.3609 4.322 39.4962 4.28 39.6829 4.28H40.4109C40.5976 4.28 40.7329 4.322 40.8169 4.406C40.9009 4.49 40.9429 4.62067 40.9429 4.798V10.496C40.9429 10.664 40.9009 10.79 40.8169 10.874C40.7422 10.958 40.6069 11 40.4109 11H39.6829ZM43.235 11C43.0483 11 42.913 10.958 42.829 10.874C42.745 10.79 42.703 10.664 42.703 10.496V4.658C42.703 4.518 42.7263 4.42 42.773 4.364C42.8196 4.308 42.9176 4.28 43.067 4.28H43.809C43.9116 4.28 43.9863 4.30333 44.033 4.35C44.0796 4.38733 44.1076 4.45733 44.117 4.56L44.159 5.148C44.4296 4.80267 44.7376 4.53667 45.083 4.35C45.4376 4.16333 45.8576 4.07 46.343 4.07C46.7536 4.07 47.1083 4.16333 47.407 4.35C47.715 4.52733 47.939 4.79333 48.079 5.148C48.5923 4.42933 49.3343 4.07 50.305 4.07C50.9676 4.07 51.4903 4.27067 51.873 4.672C52.265 5.07333 52.461 5.67067 52.461 6.464V10.496C52.461 10.664 52.419 10.79 52.335 10.874C52.2603 10.958 52.125 11 51.929 11H51.313C51.1263 11 50.991 10.958 50.907 10.874C50.823 10.79 50.781 10.664 50.781 10.496V6.562C50.781 6.13267 50.6876 5.82467 50.501 5.638C50.3236 5.45133 50.053 5.358 49.689 5.358C49.3063 5.358 48.9936 5.484 48.751 5.736C48.5176 5.988 48.401 6.32867 48.401 6.758V10.496C48.401 10.664 48.359 10.79 48.275 10.874C48.191 10.958 48.0556 11 47.869 11H47.295C47.1083 11 46.973 10.958 46.889 10.874C46.805 10.79 46.763 10.664 46.763 10.496V6.492C46.763 6.1 46.679 5.81533 46.511 5.638C46.3523 5.45133 46.0956 5.358 45.741 5.358C45.3396 5.358 45.013 5.49333 44.761 5.764C44.509 6.02533 44.383 6.37067 44.383 6.8V10.496C44.383 10.664 44.341 10.79 44.257 10.874C44.1823 10.958 44.047 11 43.851 11H43.235ZM57.6629 11.21C56.9349 11.21 56.2769 11.0887 55.6889 10.846C55.1009 10.594 54.6296 10.2113 54.2749 9.698C53.9296 9.17533 53.7569 8.52667 53.7569 7.752C53.7569 6.548 54.0789 5.63333 54.7229 5.008C55.3669 4.38267 56.2816 4.07 57.4669 4.07C58.6429 4.07 59.5296 4.37333 60.1269 4.98C60.7336 5.58667 61.0369 6.464 61.0369 7.612C61.0369 7.93867 60.8876 8.102 60.5889 8.102H55.4509C55.4509 8.718 55.6656 9.194 56.0949 9.53C56.5243 9.85667 57.1216 10.02 57.8869 10.02C58.6243 10.02 59.2869 9.852 59.8749 9.516C59.9403 9.47867 59.9916 9.46 60.0289 9.46C60.0943 9.46 60.1456 9.502 60.1829 9.586L60.5189 10.188C60.5469 10.244 60.5609 10.2953 60.5609 10.342C60.5609 10.4073 60.5189 10.468 60.4349 10.524C60.0523 10.7573 59.6369 10.93 59.1889 11.042C58.7503 11.154 58.2416 11.21 57.6629 11.21ZM59.4129 7.066C59.4129 6.48733 59.2496 6.03467 58.9229 5.708C58.6056 5.38133 58.1249 5.218 57.4809 5.218C56.8276 5.218 56.3236 5.386 55.9689 5.722C55.6236 6.058 55.4509 6.506 55.4509 7.066H59.4129Z" fill="#00FF2F"/>
<path d="M18.0704 24.24C16.2144 24.24 14.7744 23.7547 13.7504 22.784C12.737 21.8027 12.2304 20.3947 12.2304 18.56C12.2304 16.7147 12.7264 15.3067 13.7184 14.336C14.721 13.3653 16.1504 12.88 18.0064 12.88C18.785 12.88 19.489 12.96 20.1184 13.12C20.7584 13.2693 21.297 13.488 21.7344 13.776C21.841 13.8507 21.8944 13.936 21.8944 14.032C21.8944 14.1173 21.8624 14.208 21.7984 14.304L21.2384 15.28C21.1637 15.3973 21.089 15.456 21.0144 15.456C20.9504 15.456 20.8597 15.424 20.7424 15.36C20.0597 14.976 19.2544 14.784 18.3264 14.784C17.2277 14.784 16.3744 15.104 15.7664 15.744C15.1584 16.3733 14.8544 17.312 14.8544 18.56C14.8544 19.8187 15.169 20.7627 15.7984 21.392C16.4384 22.0213 17.3077 22.336 18.4064 22.336C19.409 22.336 20.2517 22.144 20.9344 21.76C21.0517 21.696 21.1424 21.664 21.2064 21.664C21.281 21.664 21.3557 21.7227 21.4304 21.84L22.0544 22.912C22.097 22.9867 22.1184 23.0507 22.1184 23.104C22.1184 23.168 22.0544 23.248 21.9264 23.344C21.0944 23.9413 19.809 24.24 18.0704 24.24ZM24.1301 24C23.8635 24 23.6715 23.9467 23.5541 23.84C23.4475 23.7227 23.3941 23.5467 23.3941 23.312V13.584C23.3941 13.4027 23.4261 13.28 23.4901 13.216C23.5541 13.152 23.6821 13.12 23.8741 13.12H25.3621C25.5541 13.12 25.6821 13.152 25.7461 13.216C25.8208 13.28 25.8581 13.4027 25.8581 13.584V16.992C26.5515 16.384 27.4528 16.08 28.5621 16.08C29.4368 16.08 30.1355 16.32 30.6581 16.8C31.1915 17.2693 31.4581 17.9733 31.4581 18.912V23.312C31.4581 23.5467 31.3995 23.7227 31.2821 23.84C31.1755 23.9467 30.9941 24 30.7381 24H29.5381C29.2715 24 29.0795 23.9467 28.9621 23.84C28.8555 23.7227 28.8021 23.5467 28.8021 23.312V19.072C28.8021 18.656 28.7061 18.3573 28.5141 18.176C28.3221 17.9947 28.0288 17.904 27.6341 17.904C27.1968 17.904 26.8181 18.0267 26.4981 18.272C26.1888 18.5067 26.0341 18.816 26.0341 19.2V23.312C26.0341 23.5467 25.9808 23.7227 25.8741 23.84C25.7675 23.9467 25.5808 24 25.3141 24H24.1301ZM48.2948 24.24C47.3241 24.24 46.5881 23.9733 46.0868 23.44C45.5854 22.9067 45.3348 22.1707 45.3348 21.232V18.176H44.5508C44.2948 18.176 44.1241 18.128 44.0388 18.032C43.9534 17.936 43.9108 17.7653 43.9108 17.52V16.992C43.9108 16.7467 43.9534 16.576 44.0388 16.48C44.1241 16.3733 44.2948 16.32 44.5508 16.32H45.3348V15.68C45.3348 15.4453 45.3828 15.216 45.4788 14.992C45.5854 14.7573 45.7348 14.4693 45.9268 14.128C46.0121 13.9787 46.0921 13.8827 46.1668 13.84C46.2414 13.7867 46.3748 13.76 46.5668 13.76H47.3028C47.5481 13.76 47.7188 13.8133 47.8148 13.92C47.9214 14.0267 47.9748 14.1973 47.9748 14.432V16.32H49.5588C49.8148 16.32 49.9854 16.3733 50.0708 16.48C50.1561 16.576 50.1988 16.7467 50.1988 16.992V17.52C50.1988 17.7653 50.1561 17.936 50.0708 18.032C49.9854 18.128 49.8148 18.176 49.5588 18.176H47.9748V21.168C47.9748 21.584 48.0494 21.8827 48.1988 22.064C48.3481 22.2453 48.5988 22.336 48.9508 22.336C49.1641 22.336 49.3401 22.3093 49.4788 22.256C49.6281 22.2027 49.7934 22.1173 49.9748 22C50.0601 21.9467 50.1241 21.92 50.1668 21.92C50.2628 21.92 50.3428 21.9787 50.4068 22.096L50.9988 23.104C51.0521 23.1893 51.0788 23.2587 51.0788 23.312C51.0788 23.3867 51.0148 23.4667 50.8868 23.552C50.2148 24.0107 49.3508 24.24 48.2948 24.24Z" fill="#00FF2F"/>
<path d="M36.3999 19.4999H36.4039M37.9999 19.4999H38.0039M39.5999 19.4999H39.6039M34.3967 21.0196C34.4555 21.1494 34.4686 21.2916 34.4343 21.428L34.0083 22.5795C33.9946 22.6379 33.9981 22.6984 34.0186 22.7552C34.0391 22.8121 34.0758 22.8634 34.1253 22.9044C34.1749 22.9453 34.2355 22.9745 34.3016 22.9892C34.3676 23.0039 34.4368 23.0036 34.5027 22.9883L35.8679 22.639C36.015 22.6135 36.1673 22.6246 36.3075 22.6712C37.1616 23.0202 38.1292 23.0941 39.0395 22.8797C39.9498 22.6653 40.7444 22.1765 41.2829 21.4995C41.8215 20.8225 42.0695 20.0009 41.9832 19.1795C41.8969 18.3581 41.4817 17.5897 40.8111 17.0101C40.1404 16.4304 39.2574 16.0766 38.3176 16.0111C37.3779 15.9456 36.4419 16.1726 35.6749 16.6521C34.9078 17.1315 34.3589 17.8327 34.125 18.6317C33.8912 19.4308 33.9874 20.2765 34.3967 21.0196Z" stroke="white" stroke-width="2" stroke-linecap="round" stroke-linejoin="round"/>
</svg>
