<svg width="18" height="18" viewBox="0 0 18 18" fill="none" xmlns="http://www.w3.org/2000/svg">
<path d="M16.5 16.5L12.8808 12.8808M12.8808 12.8808C13.4999 12.2618 13.991 11.5268 14.326 10.718C14.661 9.90909 14.8335 9.04216 14.8335 8.16666C14.8335 7.29116 14.6611 6.42423 14.326 5.61537C13.991 4.80652 13.4999 4.07157 12.8808 3.4525C12.2617 2.83342 11.5268 2.34235 10.7179 2.00731C9.90909 1.67227 9.04216 1.49982 8.16666 1.49982C7.29115 1.49982 6.42422 1.67227 5.61537 2.00731C4.80651 2.34235 4.07156 2.83342 3.45249 3.4525C2.20221 4.70277 1.49982 6.39851 1.49982 8.16666C1.49982 9.93482 2.20221 11.6306 3.45249 12.8808C4.70276 14.1311 6.3985 14.8335 8.16666 14.8335C9.93481 14.8335 11.6305 14.1311 12.8808 12.8808Z" stroke="white" stroke-width="1.5" stroke-linecap="round" stroke-linejoin="round"/>
</svg>
