<svg width="20" height="20" viewBox="0 0 20 20" fill="none" xmlns="http://www.w3.org/2000/svg">
<path d="M11.759 10H3.83104H11.759ZM3.83104 10C3.83104 9.72502 3.77404 9.45002 3.66104 9.19202L1.28404 3.81402C0.524037 2.09402 2.34204 0.372021 4.01804 1.22302L17.799 8.21702C19.259 8.95702 19.259 11.043 17.799 11.783L4.01904 18.777C2.34204 19.628 0.524037 17.905 1.28404 16.186L3.65904 10.808C3.77129 10.5534 3.82919 10.2782 3.82904 10" fill="white"/>
<path d="M11.759 10H3.83104C3.83104 9.72502 3.77404 9.45002 3.66104 9.19202L1.28404 3.81402C0.524037 2.09402 2.34204 0.372021 4.01804 1.22302L17.799 8.21702C19.259 8.95702 19.259 11.043 17.799 11.783L4.01904 18.777C2.34204 19.628 0.524037 17.905 1.28404 16.186L3.65904 10.808C3.77129 10.5534 3.82919 10.2782 3.82904 10" stroke="black" stroke-width="1.5" stroke-linecap="round" stroke-linejoin="round"/>
</svg>
