<svg width="17" height="20" viewBox="0 0 17 20" fill="none" xmlns="http://www.w3.org/2000/svg">
<path d="M14.5 7L13.66 15.398C13.533 16.671 13.47 17.307 13.18 17.788C12.9257 18.2114 12.5516 18.55 12.105 18.761C11.598 19 10.96 19 9.68 19H7.32C6.041 19 5.402 19 4.895 18.76C4.44805 18.5491 4.07361 18.2106 3.819 17.787C3.531 17.307 3.467 16.671 3.339 15.398L2.5 7M10 13.5V8.5M7 13.5V8.5M1 4.5H5.615M5.615 4.5L6.001 1.828C6.113 1.342 6.517 1 6.981 1H10.019C10.483 1 10.886 1.342 10.999 1.828L11.385 4.5M5.615 4.5H11.385M11.385 4.5H16" stroke="white" stroke-width="1.5" stroke-linecap="round" stroke-linejoin="round"/>
</svg>
